<!-- Generated by IcoMoon.io -->
<svg version="1.1" xmlns="http://www.w3.org/2000/svg" width="16" height="16" viewBox="0 0 16 16">
<title>printer</title>
<path d="M12.5 13.5v0.5c0 0.556-0.447 1-0.999 1h-7.503c-0.553 0-0.999-0.448-0.999-1v-0.5h-1.003c-0.827 0-1.497-0.671-1.497-1.5v-4.501c0-0.828 0.67-1.5 1.497-1.5h1.003v-3.5c0-0.556 0.447-1 0.999-1h7.503c0.553 0 0.999 0.448 0.999 1v3.5h1.003c0.827 0 1.497 0.671 1.497 1.5v4.501c0 0.828-0.67 1.5-1.497 1.5h-1.003zM3 13v-3h9.5v3h0.996c0.554 0 1.004-0.447 1.004-1.001v-4.497c0-0.553-0.449-1.001-1.004-1.001h-11.493c-0.554 0-1.004 0.447-1.004 1.001v4.497c0 0.553 0.449 1.001 1.004 1.001h0.996zM4 2c-0.276 0-0.5 0.227-0.5 0.499v3.501h8.5v-3.501c0-0.275-0.227-0.499-0.5-0.499h-7.5zM3.5 10.5v3.501c0 0.275 0.227 0.499 0.5 0.499h7.5c0.276 0 0.5-0.227 0.5-0.499v-3.501h-8.5zM12 8.5c0.276 0 0.5-0.224 0.5-0.5s-0.224-0.5-0.5-0.5c-0.276 0-0.5 0.224-0.5 0.5s0.224 0.5 0.5 0.5v0z"></path>
</svg>
